<svg width="242" height="242" viewBox="0 0 242 242" fill="none" xmlns="http://www.w3.org/2000/svg">
<path d="M87.3763 21.0673H61.2716C60.4628 21.0673 59.9883 21.9813 60.4387 22.6531C70.256 37.2956 69.787 46.0045 55.9918 61.017C55.8822 61.1363 55.7997 61.2836 55.7577 61.44L50.3718 81.5299C50.1444 82.3782 51.0426 83.0867 51.8146 82.6678L60.547 77.93C60.7526 77.8185 60.9146 77.6332 61.0012 77.4159C72.0176 49.7878 78.4705 38.021 90.4131 28.2613C90.5494 28.1499 90.6566 28.0032 90.717 27.8379C91.9383 24.4972 91.4142 22.8825 87.7976 21.1617C87.6667 21.0994 87.5213 21.0673 87.3763 21.0673Z" fill="white"/>
<path d="M36.2723 94.0973L27.8266 100.398C27.2403 100.835 26.3976 100.513 26.253 99.7956C23.7633 87.4497 23.3347 80.2595 27.5097 68.9102C27.5536 68.7907 27.6236 68.6756 27.7099 68.5818C32.1688 63.7324 34.6609 64.716 38.8114 68.8595C39.0417 69.0894 39.1428 69.4192 39.0843 69.7393L37.1731 80.195C37.1645 80.2421 37.1593 80.2898 37.1575 80.3376L36.6736 93.333C36.6624 93.6354 36.5148 93.9164 36.2723 94.0973Z" fill="white"/>
<path d="M87.3763 21.0673H61.2716C60.4628 21.0673 59.9883 21.9813 60.4387 22.6531C70.256 37.2956 69.787 46.0045 55.9918 61.017C55.8822 61.1363 55.7997 61.2836 55.7577 61.44L50.3718 81.5299C50.1444 82.3782 51.0426 83.0867 51.8146 82.6678L60.547 77.93C60.7526 77.8185 60.9146 77.6332 61.0012 77.4159C72.0176 49.7878 78.4705 38.021 90.4131 28.2613C90.5494 28.1499 90.6566 28.0032 90.717 27.8379C91.9383 24.4972 91.4142 22.8825 87.7976 21.1617C87.6667 21.0994 87.5213 21.0673 87.3763 21.0673Z" stroke="white" stroke-width="2"/>
<path d="M36.2723 94.0973L27.8266 100.398C27.2403 100.835 26.3976 100.513 26.253 99.7956C23.7633 87.4497 23.3347 80.2595 27.5097 68.9102C27.5536 68.7907 27.6236 68.6756 27.7099 68.5818C32.1688 63.7324 34.6609 64.716 38.8114 68.8595C39.0417 69.0894 39.1428 69.4192 39.0843 69.7393L37.1731 80.195C37.1645 80.2421 37.1593 80.2898 37.1575 80.3376L36.6736 93.333C36.6624 93.6354 36.5148 93.9164 36.2723 94.0973Z" stroke="white" stroke-width="2"/>
<path d="M137.88 12.013C28.4878 10.4061 10.1342 3.94924 12.9043 76.5809C12.9331 77.3356 12.8173 78.1224 12.558 78.8318C10.6831 83.9602 3.39593 83.8613 1.66094 78.684L1.60344 78.5124C1.43553 78.0114 1.33545 77.4775 1.30936 76.9497C-1.02376 29.7501 9.62955 8.81813 40.443 1.85607C43.2696 1.21741 46.1197 1 49.0175 1H193.512C222.827 3.47108 238.926 21.5216 239.398 51.7944C239.413 52.6951 239.19 53.5915 238.77 54.3885L238.682 54.5563C236.639 58.4357 231.084 58.4357 229.041 54.5563C228.565 53.6536 228.361 52.6357 228.403 51.6163C229.23 31.5317 217.488 11.059 188.973 12.037L187.46 16.0505L185.947 21.0673C161.815 20.0672 111.626 36.0146 90.8231 67.4189C90.6926 67.6159 90.4982 67.7608 90.2719 67.8284L75.4916 72.2389C92.7272 45.6331 105.944 32.8738 140.915 19.383C142.205 18.8853 143.076 17.6436 143.076 16.2607C143.076 15.1846 142.555 14.1752 141.678 13.5519L140.874 12.9807C140.009 12.3661 138.941 12.0286 137.88 12.013Z" fill="white" stroke="white" stroke-width="2" stroke-linecap="round"/>
<path d="M177.645 67.222H162.025C160.965 67.222 160.633 68.6086 161.597 69.0505C171.344 73.5209 197.631 84.9194 220.145 88.7775C220.211 88.7889 220.277 88.7933 220.344 88.7912L235.538 88.3036C235.759 88.2965 235.974 88.215 236.143 88.0729C239.782 85.0161 240.85 82.7771 238.928 79.5123C237.582 77.2277 234.884 76.1974 232.235 76.0914C205.04 75.0033 191.194 73.6896 178.086 67.324C177.949 67.2573 177.798 67.222 177.645 67.222Z" fill="white" stroke="white" stroke-width="2"/>
<path d="M213.237 158.541L205.006 164.272C204.755 164.446 204.598 164.728 204.578 165.033C204.207 170.889 203.641 174.211 202.279 179.379C202.166 179.806 202.345 180.26 202.721 180.492L211.453 185.868C212.046 186.234 212.823 185.892 212.955 185.207C214.86 175.293 215.325 169.13 214.799 159.302C214.757 158.524 213.877 158.095 213.237 158.541Z" fill="white" stroke="white" stroke-width="2"/>
<path d="M49.2427 228.764H109.887C110.816 228.764 111.742 228.992 112.567 229.42C116.777 231.606 116.756 237.708 112.472 239.746C111.701 240.112 110.859 240.302 110.005 240.302H52.846C49.4586 240.302 46.0721 239.985 42.7753 239.207C19.3257 233.672 9.43142 225.407 3.0736 202.822C2.57977 201.068 2.35919 199.246 2.35919 197.423V194.61C2.35919 193.34 2.81114 192.111 3.63419 191.144C5.83626 188.555 9.8624 188.649 11.9415 191.337L12.0671 191.5C12.6464 192.249 13.0219 193.144 13.1704 194.08C16.466 214.834 23.2852 222.76 42.3253 227.902C44.5756 228.51 46.9117 228.764 49.2427 228.764Z" fill="white" stroke="white" stroke-width="2"/>
<path d="M151.146 190.636L132.239 193.11C132.069 193.133 131.906 193.2 131.768 193.302C115.937 205.081 104.306 209.575 82.1394 214.63C80.4659 215.012 78.4916 216.197 78.3591 217.908C78.1929 220.054 80.807 220.703 82.9559 220.593C112.399 219.081 127.355 210.894 151.146 190.636Z" fill="white" stroke="white" stroke-width="2"/>
<path d="M82.5527 112.373L76.5004 107.357C67.4219 126.922 69.9437 147.491 93.1443 168.562C76.5004 166.555 45.2 148.022 24.5511 130.434C97.1792 67.7237 147.111 69.2287 217.217 130.434L204.018 141.079C200.394 144.002 195.973 148.107 198.353 152.108C199.323 153.738 200.996 154.956 202.968 155.196C205.461 155.5 207.658 153.79 209.714 152.347L221.039 144.395C222.843 143.128 225.199 141.339 226.915 142.723C228.219 143.775 228.391 145.789 228.535 147.476L228.546 147.609C234.444 216.418 219.882 232.415 168.36 229.364C167.342 229.304 166.3 229.505 165.387 229.959L165.232 230.036C160.651 232.314 161.161 239.007 166.034 240.565C166.53 240.724 167.07 240.815 167.591 240.832C250.03 243.583 241.62 213.057 239.966 111.286C239.932 109.19 238.804 107.214 236.991 106.162L236.838 106.074C235.008 105.012 232.741 105.056 230.953 106.187C229.31 107.228 228.313 109.038 228.313 110.983V116.375C228.313 117.213 227.634 117.892 226.796 117.892C226.471 117.892 226.147 117.782 225.886 117.589C142.838 56.2537 97.5014 55.8899 20.4091 117.27C19.5125 117.984 18.3786 118.394 17.2326 118.394H16.8265C15.9499 118.394 15.0991 118.096 14.4132 117.551C13.4892 116.815 12.9508 115.699 12.9508 114.518V103.373C12.9508 101.469 12.0165 99.6866 10.451 98.6033C8.46527 97.2293 5.83598 97.2293 3.85025 98.6033C2.28472 99.6866 1.35046 101.469 1.35046 103.373V166.942C1.35046 167.018 1.35938 167.096 1.37759 167.17C2.94696 173.536 10.8395 173.541 12.9101 167.185C12.9373 167.102 12.9508 167.012 12.9508 166.925V147.034C12.9508 145.743 13.5601 144.528 14.5945 143.757C16.0192 142.694 17.9952 142.695 19.4478 143.719C86.4539 190.962 124.841 194.237 178.843 169.74C180.454 169.01 181.641 167.555 182.041 165.832L182.143 165.391C182.613 163.367 181.803 161.261 180.098 160.074C178.71 159.108 176.932 158.896 175.355 159.508L145.598 171.07C169.303 152.006 175.86 129.431 165.268 107.357L159.216 112.373L159.922 120.34C161.982 143.557 143.689 163.545 120.38 163.545C97.4156 163.545 79.4617 143.735 81.7142 120.881L82.5527 112.373Z" fill="white" stroke="white" stroke-width="2" stroke-linecap="round"/>
<path d="M61.8316 138.994L61.4024 118.93C61.3869 118.206 60.6313 117.738 59.9764 118.047L59.6071 118.221C54.4318 120.659 49.7134 123.968 45.6573 128.002L45.5716 128.087C45.1304 128.526 45.1929 129.257 45.7022 129.615L60.2572 139.834C60.9278 140.305 61.8491 139.814 61.8316 138.994Z" fill="white"/>
<path d="M180.399 127.424V118.882C180.399 118.059 181.337 117.589 181.997 118.081L188.469 122.909L195.028 128.129C195.538 128.535 195.53 129.312 195.011 129.707L187.46 135.451L181.106 139.796C180.414 140.269 179.482 139.732 179.545 138.896L180.399 127.424Z" fill="white"/>
<path d="M61.8316 138.994L61.4024 118.93C61.3869 118.206 60.6313 117.738 59.9764 118.047L59.6071 118.221C54.4318 120.659 49.7134 123.968 45.6573 128.002L45.5716 128.087C45.1304 128.526 45.1929 129.257 45.7022 129.615L60.2572 139.834C60.9278 140.305 61.8491 139.814 61.8316 138.994Z" stroke="white" stroke-width="2" stroke-linecap="round"/>
<path d="M180.399 127.424V118.882C180.399 118.059 181.337 117.589 181.997 118.081L188.469 122.909L195.028 128.129C195.538 128.535 195.53 129.312 195.011 129.707L187.46 135.451L181.106 139.796C180.414 140.269 179.482 139.732 179.545 138.896L180.399 127.424Z" stroke="white" stroke-width="2" stroke-linecap="round"/>
<ellipse cx="120.884" cy="120.4" rx="15.1309" ry="15.0505" fill="white"/>
<path d="M81.5554 193.36C57.5746 203.501 45.0566 207.655 33.162 207.694C32.8238 207.695 32.5075 207.862 32.3192 208.143C31.958 208.682 32.1936 209.417 32.8008 209.646L46.162 214.674C48.821 215.675 51.7468 215.73 54.4333 214.806C74.1626 208.016 85.8822 202.829 104.745 192.141L97.2513 191.179C91.9213 190.495 86.5047 191.267 81.5554 193.36Z" fill="white" stroke="white" stroke-width="2"/>
<path d="M68.468 183.589L55.9867 177.204C55.1889 176.796 54.2983 177.562 54.5831 178.412L57.0793 185.861C57.2284 186.306 57.6669 186.587 58.1335 186.537L68.1186 185.473C69.107 185.368 69.353 184.041 68.468 183.589Z" fill="white" stroke="white" stroke-width="2"/>
<ellipse cx="32.6209" cy="186.121" rx="9.58287" ry="9.53196" fill="white"/>
<ellipse cx="138.537" cy="227.259" rx="9.58287" ry="9.53196" fill="white"/>
<ellipse cx="199.06" cy="206.188" rx="9.58287" ry="9.53196" fill="white"/>
<ellipse cx="199.565" cy="43.1413" rx="14.1221" ry="14.0471" fill="white"/>
<ellipse cx="39.1775" cy="40.1312" rx="14.1221" ry="14.0471" fill="white"/>
<path d="M171.198 184.494C167.754 195.151 164.169 200.437 155.78 208.149C155.433 208.468 155.35 208.988 155.588 209.396L160.113 217.171C160.431 217.717 161.175 217.831 161.645 217.408C175.298 205.084 180.565 196.356 183.589 179.125C183.733 178.303 182.86 177.686 182.131 178.092L171.666 183.921C171.444 184.045 171.276 184.252 171.198 184.494Z" fill="white" stroke="white" stroke-width="2"/>
<path d="M171.489 56.2879C150.517 57.8918 141.098 58.6121 133.26 63.5375C133.084 63.6487 132.877 63.7047 132.668 63.6943L115.81 62.8559C114.85 62.8082 114.513 61.572 115.321 61.0505C131.353 50.6938 144.799 46.7758 168.598 46.6555C169.017 46.6534 169.4 46.9141 169.545 47.3071L172.373 54.9418C172.604 55.5649 172.166 56.2361 171.503 56.2868L171.489 56.2879Z" fill="white" stroke="white" stroke-width="2"/>
</svg>
